<svg width="56" height="44" viewBox="0 0 56 44" fill="none" xmlns="http://www.w3.org/2000/svg">
<path fill-rule="evenodd" clip-rule="evenodd" d="M47.4399 4.18983C43.7732 2.47811 39.894 1.26186 35.905 0.573242C35.3613 1.56812 34.8681 2.58969 34.4274 3.63407C30.1266 2.98895 25.8656 2.98895 21.6439 3.63407C21.2437 2.67511 20.65 1.46943 20.1488 0.573242C16.1559 1.26209 12.2733 2.48136 8.60477 4.19855C1.30469 15.2044 -0.674004 25.9369 0.315999 36.5168C5.15767 40.1243 9.84948 42.3155 14.4627 43.7496C15.6091 42.1766 16.6226 40.5113 17.4925 38.7708C15.8362 38.1417 14.2394 37.3664 12.7212 36.4541C13.1214 36.1585 13.5128 35.849 13.8912 35.5308C23.0905 39.8244 33.0862 39.8244 42.1758 35.5308C42.5576 35.8486 42.9475 36.1565 43.3453 36.4541C41.8248 37.3688 40.2252 38.1458 38.5657 38.7756C39.4351 40.5163 40.4485 42.1815 41.5956 43.7539C46.2131 42.3199 50.9093 40.1286 55.751 36.5168C56.9118 24.2517 53.7679 13.6182 47.4399 4.18983ZM18.746 18.5965C15.9359 18.5965 13.7195 21.1735 13.7195 24.3058C13.7195 27.4381 15.9844 30.0103 18.746 30.0103C21.5561 30.0103 23.7768 27.4381 23.7724 24.3058C23.8205 21.1687 21.5561 18.5965 18.746 18.5965ZM32.2945 24.3058C32.2945 21.1735 34.5109 18.5965 37.321 18.5965C40.1311 18.5965 42.3955 21.1687 42.3475 24.3058C42.3475 27.4381 40.1311 30.0103 37.321 30.0103C34.5594 30.0103 32.2945 27.4381 32.2945 24.3058Z" fill="#5865F2"/>
</svg>
