<svg width="30" height="46" viewBox="0 0 30 46" fill="none" xmlns="http://www.w3.org/2000/svg">
<path d="M18.0183 46C21.2373 45.9022 24.293 44.4982 26.5367 42.0862C28.7804 39.6742 30.0355 36.444 30.0355 33.0815C30.0355 29.7189 28.7804 26.4888 26.5367 24.0768C24.293 21.6648 21.2373 20.2608 18.0183 20.163V20.163H0.0445557V41.6637C0.0445554 42.8177 0.483382 43.9244 1.26457 44.7406C2.04576 45.5568 3.10538 46.0157 4.21049 46.0164L18.0183 46Z" fill="url(#paint0_linear)"/>
<path d="M11.9816 0C8.7627 0.0978356 5.70702 1.50179 3.46329 3.91381C1.21957 6.32582 -0.0355225 9.55598 -0.0355225 12.9185C-0.0355225 16.2811 1.21957 19.5112 3.46329 21.9232C5.70702 24.3353 8.7627 25.7392 11.9816 25.837V25.837H29.9554V4.83419C29.9554 3.55255 29.468 2.32337 28.6004 1.41687C27.7327 0.51036 26.5558 0.000725315 25.3284 0L11.9816 0Z" fill="url(#paint1_linear)"/>
<defs>
<linearGradient id="paint0_linear" x1="4.80525" y1="50.7275" x2="19.0749" y2="21.6862" gradientUnits="userSpaceOnUse">
<stop stop-color="#3300D7"/>
<stop offset="1" stop-color="#FF00FF"/>
</linearGradient>
<linearGradient id="paint1_linear" x1="3804.32" y1="10.0765" x2="1000.98" y2="2792.97" gradientUnits="userSpaceOnUse">
<stop stop-color="#3300D7"/>
<stop offset="1" stop-color="#FF00FF"/>
</linearGradient>
</defs>
</svg>
