<svg width="32" height="32" viewBox="0 0 32 32" fill="none" xmlns="http://www.w3.org/2000/svg">
<path fill-rule="evenodd" clip-rule="evenodd" d="M4.79999 8.00001C4.79999 7.57566 4.96856 7.1687 5.26862 6.86864C5.56868 6.56858 5.97564 6.40001 6.39999 6.40001H25.6C26.0243 6.40001 26.4313 6.56858 26.7314 6.86864C27.0314 7.1687 27.2 7.57566 27.2 8.00001C27.2 8.42436 27.0314 8.83132 26.7314 9.13138C26.4313 9.43144 26.0243 9.60001 25.6 9.60001H6.39999C5.97564 9.60001 5.56868 9.43144 5.26862 9.13138C4.96856 8.83132 4.79999 8.42436 4.79999 8.00001Z" fill="white"/>
<path fill-rule="evenodd" clip-rule="evenodd" d="M4.79999 16C4.79999 15.5757 4.96856 15.1687 5.26862 14.8687C5.56868 14.5686 5.97564 14.4 6.39999 14.4H25.6C26.0243 14.4 26.4313 14.5686 26.7314 14.8687C27.0314 15.1687 27.2 15.5757 27.2 16C27.2 16.4244 27.0314 16.8313 26.7314 17.1314C26.4313 17.4315 26.0243 17.6 25.6 17.6H6.39999C5.97564 17.6 5.56868 17.4315 5.26862 17.1314C4.96856 16.8313 4.79999 16.4244 4.79999 16Z" fill="white"/>
<path fill-rule="evenodd" clip-rule="evenodd" d="M4.79999 24C4.79999 23.5757 4.96856 23.1687 5.26862 22.8687C5.56868 22.5686 5.97564 22.4 6.39999 22.4H16C16.4243 22.4 16.8313 22.5686 17.1314 22.8687C17.4314 23.1687 17.6 23.5757 17.6 24C17.6 24.4244 17.4314 24.8313 17.1314 25.1314C16.8313 25.4315 16.4243 25.6 16 25.6H6.39999C5.97564 25.6 5.56868 25.4315 5.26862 25.1314C4.96856 24.8313 4.79999 24.4244 4.79999 24Z" fill="white"/>
</svg>
