<svg width="42" height="42" viewBox="0 0 42 42" fill="none" xmlns="http://www.w3.org/2000/svg">
<path d="M20.9871 0.506348C9.59736 0.506348 0.363708 9.73975 0.363708 21.1295C0.363708 32.5197 9.59736 41.7524 20.9871 41.7524C32.3781 41.7524 41.6107 32.5197 41.6107 21.1295C41.6107 9.74049 32.3781 0.507333 20.9869 0.507333L20.9871 0.506348ZM30.4449 30.2508C30.0755 30.8567 29.2825 31.0487 28.6766 30.6769C23.8345 27.7192 17.7388 27.0493 10.56 28.6895C9.86825 28.8471 9.1787 28.4137 9.02109 27.7216C8.86273 27.0296 9.29445 26.3401 9.98794 26.1825C17.844 24.3876 24.5826 25.1604 30.0188 28.4826C30.6246 28.8545 30.8167 29.645 30.4449 30.2508ZM32.9691 24.6354C32.5037 25.3919 31.5137 25.6308 30.7576 25.1654C25.2141 21.758 16.7638 20.7712 10.2069 22.7615C9.35651 23.0184 8.45836 22.5391 8.20027 21.6902C7.94415 20.8399 8.42363 19.9435 9.27253 19.6849C16.7623 17.4123 26.0736 18.5131 32.4396 22.4251C33.1957 22.8906 33.4346 23.8803 32.9691 24.6354ZM33.1858 18.788C26.539 14.84 15.5726 14.477 9.22648 16.4031C8.20741 16.7121 7.12973 16.1369 6.82091 15.1178C6.51209 14.0982 7.08688 13.0213 8.10668 12.7115C15.3916 10.5 27.5019 10.9273 35.1545 15.4702C36.0731 16.0142 36.3736 17.198 35.8293 18.1134C35.2875 19.03 34.1005 19.3322 33.1868 18.788H33.1858Z" fill="#4EE818"/>
</svg>
