<svg width="36" height="29" viewBox="0 0 36 29" fill="none" xmlns="http://www.w3.org/2000/svg">
<g clip-path="url(#clip0)">
<path d="M36 3.53133C34.6753 4.11091 33.2519 4.50262 31.7579 4.67884C33.283 3.77693 34.454 2.34871 35.0054 0.647006C33.5556 1.49589 31.9694 2.09399 30.3154 2.41545C28.968 0.999169 27.0487 0.114044 24.9242 0.114044C20.8453 0.114044 17.5382 3.37703 17.5382 7.40151C17.5382 7.97277 17.6036 8.5289 17.7294 9.06242C11.5912 8.7584 6.14897 5.85715 2.50608 1.44804C1.87045 2.52437 1.50623 3.77637 1.50623 5.11176C1.50623 7.64017 2.81025 9.87067 4.79194 11.1776C3.61905 11.1414 2.47197 10.8288 1.44647 10.266C1.44605 10.2965 1.44605 10.327 1.44605 10.3577C1.44605 13.8886 3.99192 16.8341 7.37058 17.5036C6.28297 17.7955 5.14213 17.8382 4.03523 17.6285C4.97503 20.5238 7.70273 22.6307 10.9346 22.6896C8.40684 24.6442 5.22211 25.8093 1.76189 25.8093C1.16564 25.8093 0.577828 25.7747 0 25.7074C3.26855 27.7752 7.15078 28.9817 11.3217 28.9817C24.9071 28.9817 32.3359 17.8769 32.3359 8.24667C32.3359 7.93059 32.3288 7.6163 32.3145 7.30382C33.7605 6.27243 35.0085 4.99495 36 3.53133Z" fill="#55ACEE"/>
</g>
<defs>
<clipPath id="clip0">
<rect width="36" height="29" fill="white"/>
</clipPath>
</defs>
</svg>
