<svg width="58" height="41" viewBox="0 0 58 41" fill="none" xmlns="http://www.w3.org/2000/svg">
<path d="M56.5124 6.35033C56.1858 5.1383 55.5485 4.03333 54.6641 3.14545C53.7798 2.25757 52.6791 1.61776 51.4718 1.28974C47.052 0.0795898 29.2635 0.0795898 29.2635 0.0795898C29.2635 0.0795898 11.4741 0.11622 7.05421 1.32637C5.8469 1.65441 4.74626 2.29425 3.86188 3.18217C2.97751 4.07009 2.34027 5.17511 2.01361 6.38718C0.676702 14.2712 0.158091 26.2847 2.05032 33.8534C2.37701 35.0654 3.01427 36.1704 3.89864 37.0582C4.78301 37.9461 5.88364 38.5859 7.09092 38.9139C11.5108 40.1241 29.2997 40.1241 29.2997 40.1241C29.2997 40.1241 47.0885 40.1241 51.5081 38.9139C52.7154 38.586 53.8161 37.9462 54.7005 37.0583C55.5849 36.1704 56.2222 35.0654 56.5489 33.8534C57.959 25.9581 58.3935 13.9523 56.5124 6.35055V6.35033Z" fill="#FF0000"/>
<path d="M23.6018 28.6826L38.359 20.1017L23.602 11.5208L23.6018 28.6826Z" fill="white"/>
</svg>
